<?xml version="1.0" standalone="no"?>
<!DOCTYPE svg PUBLIC "-//W3C//DTD SVG 20010904//EN"
 "http://www.w3.org/TR/2001/REC-SVG-20010904/DTD/svg10.dtd">
<svg version="1.0" xmlns="http://www.w3.org/2000/svg"
 width="2800.000000pt" height="2800.000000pt" viewBox="0 0 2800.000000 2800.000000"
 preserveAspectRatio="xMidYMid meet">

<g transform="translate(0.000000,2800.000000) scale(0.100000,-0.100000)"
fill="#000000" stroke="none">
<path d="M10980 24553 c-202 -26 -358 -122 -466 -285 -148 -222 -176 -517 -72
-766 116 -280 401 -519 752 -631 103 -33 268 -64 397 -75 l76 -7 5 81 c3 44 8
83 11 87 4 3 42 -3 85 -15 286 -79 605 -88 898 -27 16 3 23 -3 33 -31 32 -88
146 -234 285 -363 l58 -54 -7 -93 -7 -94 48 -1 c27 0 59 -2 72 -5 26 -5 27 0
6 80 -9 34 -17 104 -17 161 -1 86 2 107 22 149 45 91 144 136 218 99 113 -55
110 -199 -9 -438 -68 -134 -147 -244 -250 -347 -16 -15 -28 -29 -28 -31 0 -2
19 -12 43 -22 23 -11 44 -20 46 -21 8 -6 -103 -106 -166 -150 -37 -27 -70 -51
-73 -54 -10 -12 -107 -69 -170 -101 -36 -18 -76 -40 -90 -49 -14 -9 -70 -35
-125 -60 -113 -49 -169 -80 -160 -88 3 -3 -39 -29 -92 -57 -131 -68 -218 -125
-339 -222 -326 -263 -579 -646 -709 -1074 -47 -156 -85 -395 -85 -540 l0 -76
-42 -13 c-148 -44 -275 -160 -349 -316 -65 -141 -90 -335 -81 -646 l5 -177
-27 -31 c-58 -69 -15 -170 72 -170 32 0 47 7 72 32 29 28 32 36 27 75 -3 25
-14 54 -25 66 -19 21 -21 37 -26 242 -7 309 11 437 79 581 61 127 160 215 279
249 120 35 245 -3 347 -104 136 -137 181 -294 195 -678 3 -109 10 -229 14
-268 7 -65 6 -72 -15 -95 -74 -80 -10 -210 102 -210 26 0 26 0 20 -67 -33
-358 -42 -613 -42 -1263 0 -539 4 -726 18 -930 26 -386 55 -670 82 -825 204
-1159 392 -2483 441 -3097 4 -49 10 -88 13 -88 3 1 47 123 98 273 151 450 296
868 299 865 1 -2 12 -102 23 -222 12 -120 28 -289 37 -375 8 -86 37 -388 64
-671 27 -283 70 -726 95 -985 24 -258 51 -540 59 -625 9 -85 40 -414 70 -730
31 -316 63 -649 71 -740 9 -91 34 -349 56 -575 65 -670 78 -806 85 -883 4 -40
10 -70 15 -65 9 10 107 318 153 483 163 586 274 1220 330 1890 56 656 56 1435
0 2405 -57 1010 -196 2153 -334 2755 -82 361 -198 960 -246 1274 l-18 119 -61
26 c-33 14 -121 55 -195 92 l-134 66 -1 68 0 69 -82 17 c-287 59 -486 156
-620 302 -123 136 -154 316 -76 459 32 59 106 122 161 138 136 37 332 -20 443
-131 35 -35 45 -39 87 -39 87 0 193 -72 259 -176 19 -30 36 -43 64 -51 l39
-10 0 31 c0 17 -7 96 -14 176 -39 390 -50 650 -50 1185 0 519 5 666 39 1045
46 502 134 1039 249 1514 25 104 46 193 46 199 0 6 -15 7 -37 3 -102 -18 -275
-36 -343 -36 -147 0 -318 27 -462 72 -95 29 -94 49 10 119 74 50 245 176 287
210 190 157 505 471 505 503 0 7 -5 17 -10 22 -18 18 0 42 53 70 177 92 359
249 488 420 72 96 168 280 202 389 70 226 59 518 -29 774 -34 98 -112 264
-167 355 -39 64 -44 80 -50 151 -13 190 -126 389 -283 501 -137 98 -286 141
-459 131 -130 -7 -202 -30 -397 -128 -231 -116 -343 -141 -532 -120 -127 15
-206 35 -496 126 -129 41 -278 84 -330 94 -98 21 -249 32 -310 24z m1431
-3318 c9 -24 12 -42 8 -39 -13 8 -11 -8 6 -56 18 -51 18 -53 4 -44 -9 5 -10
-1 -5 -20 4 -15 3 -25 -2 -22 -14 8 -153 -490 -246 -882 -130 -544 -254 -1260
-311 -1787 -19 -174 -20 -176 -39 -169 -17 6 -24 70 -31 289 -10 289 -24 399
-69 532 -30 89 -44 115 -100 190 -69 91 -197 180 -286 198 -80 15 -74 2 -67
154 18 379 164 775 410 1111 81 111 299 332 407 411 78 58 277 179 295 179 6
0 17 -20 26 -45z"/>
<path d="M21680 21906 c-1018 -110 -1879 -717 -2310 -1631 -187 -396 -270
-771 -270 -1225 0 -450 86 -833 276 -1230 333 -694 903 -1205 1634 -1467 492
-176 1062 -209 1580 -92 990 225 1790 957 2099 1923 205 642 175 1354 -85
1974 -137 326 -330 619 -585 886 -109 114 -292 273 -394 341 -33 22 -62 42
-65 45 -10 10 -95 63 -179 112 -293 169 -631 287 -991 344 -195 31 -520 40
-710 20z m760 -1906 c0 -345 3 -440 13 -440 6 0 204 0 440 0 l427 0 0 -480 0
-480 -440 0 -440 0 -2 -440 -3 -440 -475 0 -475 0 -3 440 -2 440 -440 0 -440
0 0 474 c0 423 2 475 16 480 9 3 207 6 440 6 l424 0 0 433 c0 239 3 437 7 440
3 4 219 7 480 7 l473 0 0 -440z"/>
<path d="M13322 21304 c5 -58 7 -61 82 -137 235 -240 339 -544 367 -1072 30
-567 -54 -1182 -237 -1736 l-35 -107 -63 0 c-101 -1 -181 -48 -242 -143 -26
-40 -29 -52 -29 -134 0 -103 16 -146 75 -205 57 -57 117 -81 200 -81 85 0 142
23 197 78 70 70 100 165 81 258 -14 68 -32 100 -83 150 l-44 42 45 139 c161
498 234 972 234 1519 0 409 -28 639 -106 874 -80 241 -230 458 -401 581 l-45
33 4 -59z"/>
<path d="M6529 11100 c-31 -5 -85 -19 -120 -30 -128 -43 -178 -82 -474 -378
-154 -153 -291 -291 -305 -306 l-24 -27 474 -474 c261 -261 480 -475 486 -475
5 0 145 136 310 303 317 318 347 357 394 492 99 288 -4 604 -255 780 -137 96
-326 140 -486 115z"/>
<path d="M11872 6555 c-40 -121 -81 -238 -91 -261 l-19 -41 -115 -32 c-301
-83 -527 -115 -833 -115 l-221 -1 -6 -235 c-4 -129 -10 -549 -14 -932 l-6
-698 56 0 c32 0 57 -3 57 -7 0 -17 -67 -107 -102 -137 -91 -79 -213 -126 -438
-171 -179 -35 -242 -52 -320 -82 -125 -50 -218 -129 -269 -231 -24 -48 -43
-134 -35 -157 5 -13 124 -15 1009 -15 l1003 0 7 213 c4 116 6 226 5 242 -1 17
-2 100 -1 186 l1 156 28 1 c15 0 50 0 79 1 l52 1 10 53 c62 303 162 1114 196
1587 8 118 17 242 20 275 9 113 27 570 24 595 -3 16 -30 -55 -77 -195z"/>
<path d="M13366 6198 c4 -23 133 -1368 160 -1668 18 -202 20 -210 43 -210 16
0 18 -16 24 -217 4 -120 7 -318 7 -440 l0 -223 1011 0 1012 0 -6 56 c-12 112
-94 230 -208 300 -83 50 -168 77 -390 123 -107 22 -221 50 -252 60 -133 46
-234 119 -293 212 -35 56 -58 129 -41 129 27 0 183 756 253 1223 33 224 64
465 64 503 l0 31 -267 6 c-371 8 -623 36 -964 107 -81 16 -149 30 -151 30 -3
0 -4 -10 -2 -22z"/>
</g>
</svg>
